<svg version="1.2" baseProfile="tiny" xmlns="http://www.w3.org/2000/svg" viewBox="0 0 312.604 72"><g fill="#E84943"><path d="M43.538 20.686l8.805 7.024L69.468 0zM0 69.468l17.125-27.71L11 46.644z"/><path d="M58.467 46.644L0 0l69.468 69.468V0z"/></g><g fill="#BA160E"><path d="M17.125 41.758L0 69.468l25.93-20.686zM69.468 0L52.343 27.71l6.124-4.886z"/><path d="M0 0v69.468l11-46.644 58.468 46.644z"/></g><path d="M11 22.824v23.82L0 69.468zM69.468 0L58.467 22.824v23.82z" fill="#CD2A22"/><path d="M109.173 51.428a167.767 167.767 0 0 0-6.966-11.29 114.909 114.909 0 0 0-7.975-10.52v21.81h-7.398V18.136h6.101c1.057 1.056 2.226 2.353 3.507 3.89a145.81 145.81 0 0 1 3.915 4.925 172.526 172.526 0 0 1 3.964 5.429 283.582 283.582 0 0 1 3.7 5.404V18.136h7.445v33.292h-6.293zm9.555 0V18.135h22.484v6.294h-14.99v6.533h13.309v6.15h-13.308v8.023h16.094v6.293h-23.589zm53.019-33.292v6.389h-10.04v26.903h-7.495V24.525h-10.04v-6.39h27.575zm11.963 27.575c1.056 0 1.928-.087 2.618-.264.688-.176 1.24-.416 1.657-.72.416-.304.704-.665.865-1.082.16-.416.24-.88.24-1.393 0-1.088-.513-1.993-1.537-2.714-1.025-.72-2.787-1.497-5.285-2.33a39.562 39.562 0 0 1-3.266-1.321 12.035 12.035 0 0 1-2.93-1.874 8.95 8.95 0 0 1-2.115-2.738c-.545-1.073-.817-2.378-.817-3.916 0-1.536.289-2.922.866-4.155.576-1.233 1.393-2.282 2.45-3.147s2.337-1.529 3.843-1.994c1.505-.464 3.202-.696 5.092-.696 2.242 0 4.18.24 5.813.72 1.633.481 2.979 1.01 4.035 1.586l-2.161 5.91a20.48 20.48 0 0 0-3.099-1.274c-1.137-.368-2.507-.553-4.107-.553-1.795 0-3.083.25-3.868.745-.785.497-1.177 1.257-1.177 2.282 0 .609.144 1.121.432 1.538.288.416.697.792 1.225 1.128.53.337 1.137.641 1.826.913a53.25 53.25 0 0 0 2.282.84c1.73.642 3.235 1.274 4.516 1.898 1.28.625 2.346 1.353 3.195 2.186a7.928 7.928 0 0 1 1.897 2.93c.416 1.122.625 2.483.625 4.085 0 3.106-1.09 5.517-3.267 7.23-2.179 1.713-5.461 2.57-9.848 2.57-1.474 0-2.804-.089-3.988-.264a25.868 25.868 0 0 1-3.147-.65 17.979 17.979 0 0 1-2.354-.816 17.74 17.74 0 0 1-1.657-.817l2.114-5.956c.992.545 2.218 1.032 3.675 1.465 1.457.432 3.243.648 5.357.648zm40.69-27.575v6.389h-10.04v26.903h-7.495V24.525h-10.04v-6.39H224.4zm21.279 33.292a142.864 142.864 0 0 0-1.195-3.564l-1.274-3.642h-13.002l-1.265 3.652c-.423 1.22-.815 2.406-1.18 3.554h-7.782a588.073 588.073 0 0 1 3.566-9.944 348.711 348.711 0 0 1 3.3-8.6c1.076-2.69 2.136-5.244 3.18-7.662s2.129-4.78 3.253-7.086h7.105a255.282 255.282 0 0 1 6.443 14.749c1.078 2.69 2.18 5.556 3.306 8.599a598.05 598.05 0 0 1 3.572 9.944h-8.027zm-9.004-25.75a61.815 61.815 0 0 1-.734 1.973c-.322.833-.689 1.795-1.1 2.885-.41 1.091-.871 2.292-1.38 3.603a220.165 220.165 0 0 0-1.549 4.126h9.52a507.536 507.536 0 0 0-1.48-4.138 146.881 146.881 0 0 0-1.36-3.61c-.43-1.09-.808-2.052-1.132-2.884a82.834 82.834 0 0 0-.785-1.955zM270.04 52.1c-5.414 0-9.536-1.504-12.37-4.515-2.835-3.01-4.253-7.286-4.253-12.827 0-2.754.433-5.213 1.297-7.374s2.05-3.988 3.556-5.477c1.505-1.49 3.297-2.619 5.38-3.387 2.081-.77 4.34-1.153 6.774-1.153 1.408 0 2.69.105 3.843.312a25.17 25.17 0 0 1 3.026.72c.865.274 1.586.553 2.163.842.576.288.992.512 1.248.672l-2.161 6.053c-1.026-.544-2.218-1.009-3.58-1.393-1.36-.385-2.906-.577-4.635-.577-1.153 0-2.282.192-3.387.577a7.657 7.657 0 0 0-2.931 1.85c-.849.849-1.53 1.945-2.041 3.29-.513 1.346-.769 2.98-.769 4.9 0 1.538.168 2.972.505 4.3.336 1.33.88 2.475 1.633 3.435.752.96 1.737 1.722 2.954 2.282 1.217.561 2.69.841 4.42.841 1.089 0 2.066-.064 2.93-.192.865-.127 1.634-.28 2.307-.457a12.003 12.003 0 0 0 1.777-.6c.512-.224.976-.432 1.393-.624l2.066 6.005c-1.057.64-2.546 1.217-4.468 1.73-1.922.51-4.148.768-6.677.768zm33.654-.672a59.546 59.546 0 0 0-2.385-3.512 78.044 78.044 0 0 0-2.96-3.805 57.435 57.435 0 0 0-3.32-3.676 35.65 35.65 0 0 0-3.467-3.107v14.1h-7.494V18.136h7.494v12.512a304.443 304.443 0 0 0 5.872-6.35c1.988-2.21 3.824-4.263 5.508-6.162h8.893a226.055 226.055 0 0 1-6.837 7.783 240.238 240.238 0 0 1-7.239 7.517c2.664 2.223 5.233 4.857 7.707 7.907 2.475 3.049 4.854 6.41 7.138 10.085h-8.91z" fill="#36343A"/><path d="M93.634 58.073h2.538v11.275h-2.538v-4.783h-4.262v4.783h-2.538V58.073h2.538v4.312h4.262v-4.312zm15.391 5.63c0 .965-.144 1.814-.431 2.546-.288.732-.681 1.344-1.18 1.838a4.834 4.834 0 0 1-1.781 1.114 6.47 6.47 0 0 1-2.221.375 6.3 6.3 0 0 1-2.18-.375 5.004 5.004 0 0 1-1.79-1.114c-.51-.494-.91-1.106-1.204-1.838-.292-.732-.439-1.581-.439-2.546 0-.966.152-1.814.456-2.547a5.415 5.415 0 0 1 1.228-1.846 5.058 5.058 0 0 1 1.79-1.123 6.153 6.153 0 0 1 2.139-.374c.77 0 1.497.125 2.18.374.683.25 1.28.624 1.79 1.123.51.498.91 1.114 1.203 1.846.293.733.44 1.581.44 2.547zm-8.607 0c0 .553.068 1.052.204 1.496.135.445.33.828.585 1.147.255.32.567.567.936.74.368.174.792.26 1.269.26.466 0 .886-.086 1.26-.26a2.57 2.57 0 0 0 .944-.74c.255-.32.45-.702.586-1.147.136-.444.204-.943.204-1.496s-.068-1.055-.204-1.506a3.421 3.421 0 0 0-.586-1.155 2.57 2.57 0 0 0-.943-.74 2.963 2.963 0 0 0-1.261-.26c-.477 0-.9.09-1.269.268-.369.179-.68.429-.936.749-.255.32-.45.705-.585 1.155-.136.45-.204.947-.204 1.489zm13.308 3.709c.359 0 .654-.03.887-.09.233-.06.42-.14.561-.244a.814.814 0 0 0 .293-.366c.054-.14.081-.298.081-.471 0-.37-.173-.676-.52-.92-.347-.243-.943-.507-1.79-.789a13.47 13.47 0 0 1-1.106-.447 4.05 4.05 0 0 1-.992-.635 3.027 3.027 0 0 1-.716-.927c-.185-.363-.277-.805-.277-1.326s.098-.99.293-1.407.472-.773.83-1.066a3.8 3.8 0 0 1 1.301-.675 5.849 5.849 0 0 1 1.725-.236c.759 0 1.415.082 1.968.244.554.163 1.01.342 1.367.537l-.732 2.001a6.923 6.923 0 0 0-1.05-.431c-.385-.125-.848-.187-1.39-.187-.608 0-1.045.084-1.31.252-.266.168-.399.426-.399.772 0 .207.049.38.147.522.097.14.235.268.415.382.179.114.384.217.618.309.233.092.49.187.773.285.585.217 1.095.43 1.529.642.433.212.794.459 1.082.74.287.283.501.613.642.993.141.38.212.84.212 1.383 0 1.052-.37 1.868-1.107 2.449-.737.58-1.849.87-3.335.87a9.18 9.18 0 0 1-1.35-.09 8.737 8.737 0 0 1-1.065-.22 6.04 6.04 0 0 1-1.359-.552l.716-2.018c.336.185.75.35 1.244.497.494.145 1.099.219 1.814.219zm13.943-9.339v2.164h-3.4v9.111h-2.538v-9.111h-3.4v-2.164h9.338zm1.139 0h2.538v11.275h-2.538V58.073zm12.218 11.275a56.507 56.507 0 0 0-2.36-3.823 38.911 38.911 0 0 0-2.7-3.563v7.386h-2.506V58.073h2.067c.358.358.754.798 1.187 1.318.434.52.876 1.076 1.326 1.668.45.591.898 1.204 1.343 1.839.444.634.861 1.244 1.253 1.83v-6.655h2.52v11.275h-2.13zm9.744-9.323c-1.182 0-2.036.329-2.561.984-.527.657-.79 1.555-.79 2.694 0 .553.066 1.054.196 1.505.13.45.325.837.585 1.163.26.325.586.577.976.757.39.178.846.268 1.367.268.282 0 .523-.006.724-.016.2-.01.377-.033.528-.065v-3.922h2.539v5.581c-.304.119-.792.247-1.465.382s-1.502.204-2.489.204c-.845 0-1.613-.13-2.302-.39a4.809 4.809 0 0 1-1.765-1.14 5.07 5.07 0 0 1-1.13-1.838c-.267-.727-.399-1.556-.399-2.489 0-.944.146-1.78.44-2.506a5.403 5.403 0 0 1 1.203-1.847 5.067 5.067 0 0 1 1.798-1.147 6.18 6.18 0 0 1 2.204-.39 8.936 8.936 0 0 1 2.547.35c.308.092.563.187.764.284.2.098.344.174.43.228l-.73 2.034a6.67 6.67 0 0 0-1.197-.48 5.098 5.098 0 0 0-1.472-.204zm7.891 6.85c.022.26.035.445.04.553.006.109.009.201.009.277 0 .325-.03.67-.09 1.033a9.21 9.21 0 0 1-.658 2.204 9.023 9.023 0 0 1-.554 1.058l-1.903-.472a11.55 11.55 0 0 0 .52-2.017c.098-.629.147-1.15.147-1.562 0-.065-.003-.15-.008-.252a33.039 33.039 0 0 1-.017-.317l-.016-.31a4.808 4.808 0 0 1-.008-.195h2.538zm4.799-8.802h2.538v11.275h-2.539V58.073zm12.218 11.275a56.507 56.507 0 0 0-2.36-3.823 38.911 38.911 0 0 0-2.7-3.563v7.386h-2.505V58.073h2.066c.358.358.754.798 1.188 1.318.434.52.876 1.076 1.326 1.668.45.591.897 1.204 1.342 1.839.445.634.862 1.244 1.253 1.83v-6.655h2.521v11.275h-2.13zm4.246 0V58.073h7.55v2.132h-5.012v2.359h4.458v2.131h-4.458v4.653h-2.538zm8.85-11.275h2.538v11.275h-2.538V58.073zm12.219 11.275a56.507 56.507 0 0 0-2.36-3.823 38.911 38.911 0 0 0-2.7-3.563v7.386h-2.506V58.073h2.067c.358.358.753.798 1.187 1.318.434.52.876 1.076 1.326 1.668.45.591.898 1.204 1.343 1.839a98.44 98.44 0 0 1 1.252 1.83v-6.655h2.521v11.275h-2.13zm4.246-11.275h2.538v11.275h-2.538V58.073zm13.015 0v2.164h-3.4v9.111h-2.538v-9.111h-3.4v-2.164h9.338zm1.138 11.275V58.073h7.614v2.132h-5.075v2.212h4.506V64.5h-4.506v2.718h5.45v2.131h-7.989zm16.904-2.18v2.18h-7.533V58.073h2.539v9.095h4.994zm3.641-4.47c.456-.768.89-1.537 1.303-2.305.413-.767.793-1.541 1.14-2.32h2.799a71.755 71.755 0 0 1-1.92 3.53 90.493 90.493 0 0 1-2.099 3.433v4.312h-2.537v-4.279c-.739-1.15-1.44-2.3-2.107-3.449a73.162 73.162 0 0 1-1.928-3.547h2.944c.346.779.72 1.553 1.121 2.32.401.768.829 1.537 1.284 2.305zm6.803 5.364c0 .489-.154.86-.463 1.115-.31.255-.659.383-1.05.383s-.74-.128-1.048-.383c-.31-.255-.464-.626-.464-1.115 0-.487.154-.859.464-1.114.308-.254.658-.382 1.049-.382s.74.128 1.05.382c.308.255.463.627.463 1.114z" fill="#E84943"/></svg>